HIERARCHY
ROOT hip
{
	OFFSET 0.000000 0.000000 0.000000 
	CHANNELS 6 Xposition Yposition Zposition Xrotation Zrotation Yrotation
	JOINT abdomen
	{
		OFFSET 0.000000 3.402643 0.000000 
		CHANNELS 3 Xrotation Zrotation Yrotation
		JOINT chest
		{
			OFFSET 0.000000 8.438565 -0.680529 
			CHANNELS 3 Xrotation Zrotation Yrotation
			JOINT neck
			{
				OFFSET 0.000000 10.207942 -0.272212 
				CHANNELS 3 Xrotation Zrotation Yrotation
				JOINT head
				{
					OFFSET 0.000000 3.130431 0.000000 
					CHANNELS 3 Xrotation Zrotation Yrotation
					End Site
					{
						OFFSET 0.000000 3.130435 0.000000 
					}
				}
			}
			JOINT lCollar
			{
				OFFSET 3.470700 6.669187 -0.816635 
				CHANNELS 3 Yrotation Zrotation Xrotation
				JOINT lShldr
				{
					OFFSET 3.198488 0.000000 0.000000 
					CHANNELS 3 Zrotation Yrotation Xrotation
					JOINT lForeArm
					{
						OFFSET 10.139888 0.000000 0.000000 
						CHANNELS 3 Yrotation Zrotation Xrotation
						JOINT lHand
						{
							OFFSET 8.370511 0.000000 0.000000 
							CHANNELS 3 Zrotation Yrotation Xrotation
							End Site
							{
								OFFSET 4.083176 0.000000 0.000000 
							}
						}
					}
				}
			}
			JOINT rCollar
			{
				OFFSET -3.470700 6.669187 -0.816635 
				CHANNELS 3 Yrotation Zrotation Xrotation
				JOINT rShldr
				{
					OFFSET -3.198488 0.000000 0.000000 
					CHANNELS 3 Zrotation Yrotation Xrotation
					JOINT rForeArm
					{
						OFFSET -10.139888 0.000000 0.000000 
						CHANNELS 3 Yrotation Zrotation Xrotation
						JOINT rHand
						{
							OFFSET -8.370511 0.000000 0.000000 
							CHANNELS 3 Zrotation Yrotation Xrotation
							End Site
							{
								OFFSET -4.083176 0.000000 0.000000 
							}
						}
					}
				}
			}
		}
	}
	JOINT lThigh
	{
		OFFSET 5.308129 -1.633274 1.361059 
		CHANNELS 3 Xrotation Zrotation Yrotation
		JOINT lShin
		{
			OFFSET -2.041588 -20.007561 0.000000 
			CHANNELS 3 Xrotation Zrotation Yrotation
			JOINT lFoot
			{
				OFFSET 0.000000 -19.190928 -1.224953 
				CHANNELS 3 Xrotation Yrotation Zrotation
				End Site
				{
					OFFSET 0.000000 -2.449906 4.627600 
				}
			}
		}
	}
	JOINT rThigh
	{
		OFFSET -5.308129 -1.633274 1.361059 
		CHANNELS 3 Xrotation Zrotation Yrotation
		JOINT rShin
		{
			OFFSET 2.041588 -20.007561 0.000000 
			CHANNELS 3 Xrotation Zrotation Yrotation
			JOINT rFoot
			{
				OFFSET 0.000000 -19.190928 -1.224953 
				CHANNELS 3 Xrotation Yrotation Zrotation
				End Site
				{
					OFFSET 0.000000 -2.449906 4.627600 
				}
			}
		}
	}
}
MOTION
Frames: 9
Frame Time: 0.011111
29.258032 54.066452 19.599995 3.633016 5.125215 -59.439892 21.811245 0.009076 -9.267543 -36.062523 -0.826429 -2.474104 -3.326697 -11.112586 -11.946378 7.903159 29.416744 -25.174370 -10.275489 -5.709454 -1.550532 -60.057568 -0.205520 76.149841 -90.947510 6.483126 35.736320 8.524705 12.647240 -40.901741 5.831508 6.350754 -0.460990 -29.219868 66.769508 -55.538357 82.785416 -4.875781 24.390402 -8.534408 -12.637552 44.554546 -23.358803 5.107332 -16.665892 46.518654 -4.114675 -6.856467 0.177855 -10.080612 -3.531342 -18.366457 -4.071392 -12.013325 34.669983 5.028545 5.420180 -0.954910 19.572412 4.767270 
30.077383 53.844650 20.185392 2.148247 5.793173 -71.937683 22.085196 -0.608614 -8.569678 -35.871017 -1.444319 -2.172387 -4.679622 -11.204543 -10.112202 9.290114 29.928455 -21.472034 -10.275489 -5.709454 -1.550532 -59.569523 -0.966803 77.330589 -91.132263 6.605284 35.839600 8.524705 12.647240 -39.280655 5.831508 6.350754 -0.460990 -29.585703 68.905403 -50.420570 82.885147 -4.806772 24.469788 -8.534408 -12.637552 41.273296 -21.240837 4.931484 -13.572080 46.864155 -4.078134 -6.870886 -2.364687 -5.790054 -3.576940 -18.469967 -4.274438 -12.861269 35.114277 5.024939 5.467736 -4.667027 18.799038 5.846146 
30.789043 53.595501 20.663095 0.514336 5.914736 -84.904121 22.650274 -1.789435 -7.910451 -36.254707 -1.625291 -1.859073 -5.922129 -10.693151 -8.615996 10.727049 29.693018 -18.323740 -10.275489 -5.709454 -1.550532 -59.298588 -1.605360 77.249001 -90.992477 6.511949 35.766563 8.524705 12.647240 -40.559948 5.831508 6.350754 -0.460990 -30.020571 70.055878 -46.121418 83.498520 -4.338308 24.969646 -8.534408 -12.637552 38.870953 -18.542780 5.399953 -6.685621 46.637589 -4.094946 -6.858564 -5.596899 -1.699746 -3.369592 -18.207607 -4.070045 -13.173629 36.255684 4.946899 5.613070 -11.937133 16.875612 7.486000 
31.529400 53.474644 21.095558 -2.362666 6.015296 -98.098198 22.700218 -4.717209 -8.071104 -36.860611 -1.371336 -1.641493 -7.093404 -10.359023 -7.152104 12.391813 30.339027 -15.238423 -10.275489 -5.709454 -1.550532 -58.985931 -1.900805 77.550209 -90.886429 6.441345 35.694355 8.524705 12.647240 -39.798229 5.831508 6.350754 -0.460990 -31.165251 71.530228 -44.283024 83.585022 -4.270073 25.047771 -8.534408 -12.637552 38.792828 -16.302847 4.607662 1.435492 45.789978 -4.199385 -6.750420 -7.738457 1.810451 -2.911080 -19.018965 -5.212594 -11.998828 37.686131 4.813899 5.794527 -11.844288 16.665152 7.403506 
32.186363 53.633652 21.606346 -5.195086 5.557704 -110.951591 21.831053 -7.249192 -8.318409 -36.882648 -1.748504 -1.488930 -7.873276 -9.919795 -5.892148 13.773762 31.673780 -12.558994 -10.275489 -5.709454 -1.550532 -58.518894 -2.547343 77.811043 -90.667267 6.293140 35.560722 8.524705 12.647240 -39.671276 5.831508 6.350754 -0.460990 -32.853233 71.807922 -40.144035 84.633606 -3.316317 26.093973 -8.534408 -12.637552 52.777199 -14.517924 3.367762 8.484614 44.697186 -4.287032 -6.623164 -9.416690 5.460876 -2.281478 -19.446781 -6.373744 -10.285854 38.922077 4.736135 5.954576 -13.661935 15.433750 7.470369 
32.756569 53.841274 22.056366 -7.906012 4.606516 -123.562111 20.634726 -9.644620 -8.893836 -37.672020 -1.530446 -1.560216 -9.253517 -9.947183 -4.674080 16.611107 32.827774 -9.855782 -10.275489 -5.709454 -1.550532 -59.130375 -2.636671 77.701385 -90.317017 6.040772 35.345631 8.524705 12.647240 -39.778694 5.831508 6.350754 -0.460990 -34.645645 72.833305 -38.003704 85.289482 -2.567692 26.951696 -8.534408 -12.637552 64.867050 -13.765140 1.814739 13.306250 43.721722 -4.365107 -6.511579 -10.998152 10.136464 -1.373459 -20.445974 -7.274274 -6.443634 40.029938 4.663987 6.056528 -13.487301 14.326613 7.076987 
33.278160 54.099876 22.391264 -8.756242 3.990667 -135.117340 19.091688 -9.694470 -9.103641 -37.449123 -2.122720 -1.730030 -9.833776 -9.843810 -3.986839 17.832155 34.356312 -8.530022 -10.275489 -5.709454 -1.550532 -59.008629 -2.963157 77.823715 -90.197929 5.952930 35.264744 8.524705 12.647240 -40.198616 5.831508 6.350754 -0.460990 -37.695400 72.578224 -39.571835 85.765152 -1.906855 27.869883 -8.534408 -12.637552 74.554550 -14.068705 2.029434 15.050265 43.336678 -4.397409 -6.480263 -12.799779 15.774507 -0.133020 -20.290237 -6.610484 -3.628145 40.772263 4.589428 6.153551 -10.560376 12.365430 5.932553 
33.763294 54.317287 22.747429 -9.203519 3.322225 -145.522354 17.958567 -8.929750 -9.862921 -37.168854 -2.951287 -2.083512 -9.479052 -9.650649 -3.972728 16.981874 35.007874 -8.992723 -10.275489 -5.709454 -1.550532 -58.690536 -3.416065 77.983185 -90.114281 5.889434 35.213562 8.524705 12.647240 -40.599010 5.831508 6.350754 -0.460990 -40.236595 73.384109 -42.107483 85.822075 -1.819586 28.013920 -8.534408 -12.637552 76.331894 -14.933293 2.612705 15.569213 43.809155 -4.368237 -6.539693 -14.616922 20.698614 1.149165 -19.852781 -5.712546 0.571692 41.334850 4.544184 6.234574 -6.583487 10.506063 4.797905 
34.212299 54.439499 22.987463 -9.412933 2.799635 -155.486389 16.717581 -7.714080 -10.874499 -37.541248 -3.677281 -2.591895 -9.469965 -10.284502 -3.930747 18.507793 36.803707 -9.300673 -10.275489 -5.709454 -1.550532 -60.162785 -2.192252 77.102066 -89.886978 5.717034 35.062588 8.524705 12.647240 -41.282604 5.831508 6.350754 -0.460990 -44.742939 71.027084 -47.009266 85.846985 -1.779901 28.085392 -8.534408 -12.637552 77.230331 -15.854464 4.713040 18.476696 45.248528 -4.241512 -6.692060 -12.925472 22.493397 0.741078 -19.274532 -4.774889 3.738483 41.562725 4.514910 6.263874 -0.451361 9.593960 3.605778 
